<?xml version="1.0" encoding="utf-8"?>
<!-- Generator: Adobe Illustrator 28.3.0, SVG Export Plug-In . SVG Version: 6.00 Build 0)  -->
<svg version="1.1" id="Layer_1" xmlns="http://www.w3.org/2000/svg" xmlns:xlink="http://www.w3.org/1999/xlink" x="0px" y="0px"
	 viewBox="0 0 288 288" style="enable-background:new 0 0 288 288;" xml:space="preserve">
<style type="text/css">
	.st0{fill:#ED1B24;}
	.st1{fill:#272727;}
	.st2{fill:#F1F3F2;}
</style>
<g>
	<path class="st0" d="M118.18,115.7c16.29-14.48,41.32-13.01,55.81,3.28c5.03,5.66,8.13,12.38,9.36,19.34l81.73,5.65
		c0-28.62-10.07-57.35-30.58-80.42C190.07,13.57,113.54,9.07,63.55,53.5c-22.4,19.91-35.66,46.27-39.48,73.8l82.8,5.73
		C108.96,126.55,112.74,120.53,118.18,115.7z"/>
	<path class="st1" d="M244.84,54.37C195.41-1.23,109.97-6.26,54.37,43.16c-55.6,49.42-60.63,134.87-11.2,190.47
		c49.42,55.6,134.87,60.63,190.47,11.2C289.23,195.41,294.26,109.97,244.84,54.37z M172.12,154.39c-1.55,4.72-4.33,9.11-8.31,12.65
		c-12.04,10.7-30.47,9.61-41.16-2.42c-3.68-4.14-5.97-9.04-6.89-14.12c-0.26-1.42-0.41-2.85-0.45-4.29
		c-0.04-1.39,0.01-2.78,0.16-4.15c0.11-0.99,0.27-1.98,0.48-2.96c0.39-1.81,0.95-3.59,1.69-5.32c1.64-3.83,4.12-7.37,7.44-10.32
		c12.04-10.7,30.47-9.61,41.16,2.42c3.09,3.48,5.2,7.5,6.34,11.7c0.47,1.73,0.78,3.49,0.93,5.26c0.09,1.08,0.11,2.15,0.08,3.23
		c-0.04,1.31-0.16,2.61-0.37,3.9C172.97,151.46,172.6,152.94,172.12,154.39z M63.55,53.5C113.54,9.07,190.07,13.57,234.5,63.55
		c20.51,23.07,30.58,51.8,30.58,80.42l-81.73-5.65c-1.23-6.96-4.33-13.68-9.36-19.34c-14.48-16.29-39.52-17.76-55.81-3.28
		c-5.44,4.84-9.22,10.86-11.31,17.33l-82.8-5.73C27.89,99.77,41.15,73.41,63.55,53.5z M224.45,234.5
		c-49.98,44.43-126.52,39.93-170.95-10.06c-20.5-23.06-30.57-51.78-30.58-80.38l82.28,5.69c0.89,7.81,4.09,15.43,9.7,21.74
		c14.48,16.29,39.52,17.76,55.81,3.28c6.09-5.42,10.11-12.31,12-19.67l81.22,5.62C260.09,188.25,246.84,214.6,224.45,234.5z"/>
	<g>
		<path class="st2" d="M182.7,155.12c-1.89,7.36-5.91,14.25-12,19.67c-16.29,14.48-41.33,13.01-55.81-3.28
			c-5.61-6.31-8.81-13.93-9.7-21.74l-82.28-5.69c0.01,28.6,10.08,57.32,30.58,80.38c44.43,49.98,120.96,54.48,170.95,10.06
			c22.39-19.9,35.65-46.25,39.48-73.77L182.7,155.12z"/>
		<path class="st2" d="M122.65,164.61c10.7,12.04,29.13,13.12,41.16,2.42c3.98-3.54,6.76-7.93,8.31-12.65
			c0.48-1.45,0.84-2.93,1.09-4.42c0.21-1.29,0.33-2.59,0.37-3.9c0.03-1.08,0.01-2.16-0.08-3.23c-0.15-1.77-0.46-3.53-0.93-5.26
			c-1.14-4.21-3.25-8.22-6.34-11.7c-10.7-12.04-29.13-13.12-41.16-2.42c-3.32,2.95-5.8,6.49-7.44,10.32
			c-0.74,1.72-1.3,3.5-1.69,5.32c-0.21,0.98-0.37,1.96-0.48,2.96c-0.15,1.38-0.2,2.77-0.16,4.15c0.05,1.44,0.2,2.87,0.45,4.29
			C116.68,155.57,118.97,160.47,122.65,164.61z"/>
	</g>
</g>
</svg>
